name rise44.9368peak50.754fall52.0217.mot
datacolumns 19
datarows 36
range 11.43329500000000 11.49162200000000
endheader
time	ground_force1_vx	ground_force1_vy	ground_force1_vz	ground_force1_px	ground_force1_py	ground_force1_pz	ground_force2_vx	ground_force2_vy	ground_force2_vz	ground_force2_px	ground_force2_py	ground_force2_pz	ground_torque1_x	ground_torque1_y	ground_torque1_z	ground_torque2_x	ground_torque2_y	ground_torque2_z	
11.43329500000000	53.81474200000000	742.16402500000004	57.62466300000000	0.38276600000000	0.00000000000000	0.11454700000000	0.00000000000000	0.00000000000000	0.00000000000000	0.00000000000000	0.00000000000000	0.00000000000000	0.00000000000000	29.61849600000000	0.00000000000000	0.00000000000000	0.00000000000000	0.00000000000000	
11.43496000000000	53.19086100000000	744.85573099999999	57.82596700000000	0.38147100000000	0.00000000000000	0.11456400000000	0.00000000000000	0.00000000000000	0.00000000000000	0.00000000000000	0.00000000000000	0.00000000000000	0.00000000000000	29.74871000000000	0.00000000000000	0.00000000000000	0.00000000000000	0.00000000000000	
11.43663000000000	52.56275600000000	747.45797900000002	58.02663400000000	0.38018800000000	0.00000000000000	0.11458100000000	0.00000000000000	0.00000000000000	0.00000000000000	0.00000000000000	0.00000000000000	0.00000000000000	0.00000000000000	29.88068100000000	0.00000000000000	0.00000000000000	0.00000000000000	0.00000000000000	
11.43829500000000	51.93135500000000	749.96965200000000	58.22633000000000	0.37892000000000	0.00000000000000	0.11459800000000	0.00000000000000	0.00000000000000	0.00000000000000	0.00000000000000	0.00000000000000	0.00000000000000	0.00000000000000	30.01410100000000	0.00000000000000	0.00000000000000	0.00000000000000	0.00000000000000	
11.43996000000000	51.29754500000000	752.38963999999999	58.42467300000000	0.37766600000000	0.00000000000000	0.11461500000000	0.00000000000000	0.00000000000000	0.00000000000000	0.00000000000000	0.00000000000000	0.00000000000000	0.00000000000000	30.14862400000000	0.00000000000000	0.00000000000000	0.00000000000000	0.00000000000000	
11.44165000000000	50.66217500000000	754.71684200000004	58.62123300000000	0.37642800000000	0.00000000000000	0.11463100000000	0.00000000000000	0.00000000000000	0.00000000000000	0.00000000000000	0.00000000000000	0.00000000000000	0.00000000000000	30.28387000000000	0.00000000000000	0.00000000000000	0.00000000000000	0.00000000000000	
11.44329800000000	50.02604900000000	756.95018100000004	58.81554100000000	0.37520500000000	0.00000000000000	0.11464700000000	0.00000000000000	0.00000000000000	0.00000000000000	0.00000000000000	0.00000000000000	0.00000000000000	0.00000000000000	30.41943000000000	0.00000000000000	0.00000000000000	0.00000000000000	0.00000000000000	
11.44497200000000	49.38993500000000	759.08860300000003	59.00709200000000	0.37399900000000	0.00000000000000	0.11466300000000	0.00000000000000	0.00000000000000	0.00000000000000	0.00000000000000	0.00000000000000	0.00000000000000	0.00000000000000	30.55487100000000	0.00000000000000	0.00000000000000	0.00000000000000	0.00000000000000	
11.44662600000000	48.75455800000000	761.13109299999996	59.19535000000000	0.37281000000000	0.00000000000000	0.11467800000000	0.00000000000000	0.00000000000000	0.00000000000000	0.00000000000000	0.00000000000000	0.00000000000000	0.00000000000000	30.68973300000000	0.00000000000000	0.00000000000000	0.00000000000000	0.00000000000000	
11.44829800000000	48.12060300000000	763.07667400000003	59.37975100000000	0.37163800000000	0.00000000000000	0.11469300000000	0.00000000000000	0.00000000000000	0.00000000000000	0.00000000000000	0.00000000000000	0.00000000000000	0.00000000000000	30.82354000000000	0.00000000000000	0.00000000000000	0.00000000000000	0.00000000000000	
11.44997700000000	47.48871700000000	764.92442300000005	59.55971000000000	0.37048400000000	0.00000000000000	0.11470600000000	0.00000000000000	0.00000000000000	0.00000000000000	0.00000000000000	0.00000000000000	0.00000000000000	0.00000000000000	30.95580000000000	0.00000000000000	0.00000000000000	0.00000000000000	0.00000000000000	
11.45163100000000	46.85950400000000	766.67347199999995	59.73462600000000	0.36934700000000	0.00000000000000	0.11471900000000	0.00000000000000	0.00000000000000	0.00000000000000	0.00000000000000	0.00000000000000	0.00000000000000	0.00000000000000	31.08601000000000	0.00000000000000	0.00000000000000	0.00000000000000	0.00000000000000	
11.45329200000000	46.23353000000000	768.32301900000004	59.90388700000000	0.36822900000000	0.00000000000000	0.11473100000000	0.00000000000000	0.00000000000000	0.00000000000000	0.00000000000000	0.00000000000000	0.00000000000000	0.00000000000000	31.21365700000000	0.00000000000000	0.00000000000000	0.00000000000000	0.00000000000000	
11.45495800000000	45.61132300000000	769.87233500000002	60.06687400000000	0.36712800000000	0.00000000000000	0.11474100000000	0.00000000000000	0.00000000000000	0.00000000000000	0.00000000000000	0.00000000000000	0.00000000000000	0.00000000000000	31.33822600000000	0.00000000000000	0.00000000000000	0.00000000000000	0.00000000000000	
11.45662400000000	44.99337300000000	771.32076700000005	60.22296400000000	0.36604600000000	0.00000000000000	0.11475100000000	0.00000000000000	0.00000000000000	0.00000000000000	0.00000000000000	0.00000000000000	0.00000000000000	0.00000000000000	31.45920000000000	0.00000000000000	0.00000000000000	0.00000000000000	0.00000000000000	
11.45829600000000	44.38013100000000	772.66775299999995	60.37154000000000	0.36498100000000	0.00000000000000	0.11475900000000	0.00000000000000	0.00000000000000	0.00000000000000	0.00000000000000	0.00000000000000	0.00000000000000	0.00000000000000	31.57606400000000	0.00000000000000	0.00000000000000	0.00000000000000	0.00000000000000	
11.45995900000000	43.77201100000000	773.91281900000001	60.51199000000000	0.36393500000000	0.00000000000000	0.11476600000000	0.00000000000000	0.00000000000000	0.00000000000000	0.00000000000000	0.00000000000000	0.00000000000000	0.00000000000000	31.68830900000000	0.00000000000000	0.00000000000000	0.00000000000000	0.00000000000000	
11.46162500000000	43.16939200000000	775.05559300000004	60.64371600000000	0.36290700000000	0.00000000000000	0.11477200000000	0.00000000000000	0.00000000000000	0.00000000000000	0.00000000000000	0.00000000000000	0.00000000000000	0.00000000000000	31.79543400000000	0.00000000000000	0.00000000000000	0.00000000000000	0.00000000000000	
11.46329800000000	42.57261800000000	776.09580900000003	60.76613200000000	0.36189700000000	0.00000000000000	0.11477700000000	0.00000000000000	0.00000000000000	0.00000000000000	0.00000000000000	0.00000000000000	0.00000000000000	0.00000000000000	31.89695200000000	0.00000000000000	0.00000000000000	0.00000000000000	0.00000000000000	
11.46496000000000	41.98199700000000	777.03330900000003	60.87867700000000	0.36090400000000	0.00000000000000	0.11477900000000	0.00000000000000	0.00000000000000	0.00000000000000	0.00000000000000	0.00000000000000	0.00000000000000	0.00000000000000	31.99238900000000	0.00000000000000	0.00000000000000	0.00000000000000	0.00000000000000	
11.46662300000000	41.39780300000000	777.86805500000003	60.98080800000000	0.35992800000000	0.00000000000000	0.11478100000000	0.00000000000000	0.00000000000000	0.00000000000000	0.00000000000000	0.00000000000000	0.00000000000000	0.00000000000000	32.08128900000000	0.00000000000000	0.00000000000000	0.00000000000000	0.00000000000000	
11.46829700000000	40.82027900000000	778.60012800000004	61.07201200000000	0.35896900000000	0.00000000000000	0.11478100000000	0.00000000000000	0.00000000000000	0.00000000000000	0.00000000000000	0.00000000000000	0.00000000000000	0.00000000000000	32.16321500000000	0.00000000000000	0.00000000000000	0.00000000000000	0.00000000000000	
11.46995600000000	40.24963600000000	779.22973800000000	61.15180700000000	0.35802600000000	0.00000000000000	0.11477900000000	0.00000000000000	0.00000000000000	0.00000000000000	0.00000000000000	0.00000000000000	0.00000000000000	0.00000000000000	32.23775300000000	0.00000000000000	0.00000000000000	0.00000000000000	0.00000000000000	
11.47163100000000	39.68605100000000	779.75722199999996	61.21974100000000	0.35709900000000	0.00000000000000	0.11477500000000	0.00000000000000	0.00000000000000	0.00000000000000	0.00000000000000	0.00000000000000	0.00000000000000	0.00000000000000	32.30451200000000	0.00000000000000	0.00000000000000	0.00000000000000	0.00000000000000	
11.47329300000000	39.12967400000000	780.18305399999997	61.27539900000000	0.35618800000000	0.00000000000000	0.11477000000000	0.00000000000000	0.00000000000000	0.00000000000000	0.00000000000000	0.00000000000000	0.00000000000000	0.00000000000000	32.36313000000000	0.00000000000000	0.00000000000000	0.00000000000000	0.00000000000000	
11.47495600000000	38.58062500000000	780.50784399999998	61.31840500000000	0.35529200000000	0.00000000000000	0.11476400000000	0.00000000000000	0.00000000000000	0.00000000000000	0.00000000000000	0.00000000000000	0.00000000000000	0.00000000000000	32.41327000000000	0.00000000000000	0.00000000000000	0.00000000000000	0.00000000000000	
11.47662500000000	38.03899600000000	780.73234300000001	61.34842100000000	0.35441000000000	0.00000000000000	0.11475500000000	0.00000000000000	0.00000000000000	0.00000000000000	0.00000000000000	0.00000000000000	0.00000000000000	0.00000000000000	32.45462600000000	0.00000000000000	0.00000000000000	0.00000000000000	0.00000000000000	
11.47829600000000	37.50485000000000	780.85744399999999	61.36515100000000	0.35354100000000	0.00000000000000	0.11474500000000	0.00000000000000	0.00000000000000	0.00000000000000	0.00000000000000	0.00000000000000	0.00000000000000	0.00000000000000	32.48692200000000	0.00000000000000	0.00000000000000	0.00000000000000	0.00000000000000	
11.47997300000000	36.97822600000000	780.88418700000000	61.36834400000000	0.35268600000000	0.00000000000000	0.11473400000000	0.00000000000000	0.00000000000000	0.00000000000000	0.00000000000000	0.00000000000000	0.00000000000000	0.00000000000000	32.50991500000000	0.00000000000000	0.00000000000000	0.00000000000000	0.00000000000000	
11.48163000000000	36.45913700000000	780.81375300000002	61.35778900000000	0.35184200000000	0.00000000000000	0.11472100000000	0.00000000000000	0.00000000000000	0.00000000000000	0.00000000000000	0.00000000000000	0.00000000000000	0.00000000000000	32.52339400000000	0.00000000000000	0.00000000000000	0.00000000000000	0.00000000000000	
11.48329400000000	35.94757200000000	780.64747299999999	61.33332300000000	0.35101000000000	0.00000000000000	0.11470600000000	0.00000000000000	0.00000000000000	0.00000000000000	0.00000000000000	0.00000000000000	0.00000000000000	0.00000000000000	32.52718200000000	0.00000000000000	0.00000000000000	0.00000000000000	0.00000000000000	
11.48495600000000	35.44349500000000	780.38682400000005	61.29482900000000	0.35018800000000	0.00000000000000	0.11468900000000	0.00000000000000	0.00000000000000	0.00000000000000	0.00000000000000	0.00000000000000	0.00000000000000	0.00000000000000	32.52113500000000	0.00000000000000	0.00000000000000	0.00000000000000	0.00000000000000	
11.48663100000000	34.94685100000000	780.03342999999995	61.24223200000000	0.34937600000000	0.00000000000000	0.11467200000000	0.00000000000000	0.00000000000000	0.00000000000000	0.00000000000000	0.00000000000000	0.00000000000000	0.00000000000000	32.50514600000000	0.00000000000000	0.00000000000000	0.00000000000000	0.00000000000000	
11.48829600000000	34.45756100000000	779.58906000000002	61.17550600000000	0.34857200000000	0.00000000000000	0.11465200000000	0.00000000000000	0.00000000000000	0.00000000000000	0.00000000000000	0.00000000000000	0.00000000000000	0.00000000000000	32.47913900000000	0.00000000000000	0.00000000000000	0.00000000000000	0.00000000000000	
11.48997300000000	33.97552900000000	779.05562799999996	61.09466700000000	0.34777700000000	0.00000000000000	0.11463100000000	0.00000000000000	0.00000000000000	0.00000000000000	0.00000000000000	0.00000000000000	0.00000000000000	0.00000000000000	32.44307500000000	0.00000000000000	0.00000000000000	0.00000000000000	0.00000000000000	
11.49162200000000	33.50063700000000	778.43519000000003	60.99978000000000	0.34698800000000	0.00000000000000	0.11460900000000	0.00000000000000	0.00000000000000	0.00000000000000	0.00000000000000	0.00000000000000	0.00000000000000	0.00000000000000	32.39694700000000	0.00000000000000	0.00000000000000	0.00000000000000	0.00000000000000	
